/* XPM */
static char *_77f70cd5e78464ac6dcf9875d5c3f12tAvdCh0gkyks3Hri[] = {
/* columns rows colors chars-per-pixel */
"64 64 2 1 ",
"  c None",
". c black",
/* pixels */
"                                                                ",
"                                                                ",
"                                                                ",
"                                                                ",
"                                                                ",
"                                                                ",
"                                                                ",
"                                                                ",
"                                                                ",
"                                                                ",
"                                                                ",
"                                                                ",
"                                                                ",
"                                                                ",
"                                                                ",
"                                                                ",
"                                                                ",
"                               ..                               ",
"                              ....                              ",
"                             ......                             ",
"                             ......                             ",
"                            .......                             ",
"                            ........                            ",
"                            ........                            ",
"                           ..........                           ",
"                           ..........                           ",
"                          ...........                           ",
"                          ............                          ",
"                          .....  .....                          ",
"                         ......  ......                         ",
"                         .....   ......                         ",
"                        ......    ......                        ",
"                        ......    ......                        ",
"                       ......      .....                        ",
"                       ......      ......                       ",
"                       .....  .... ......                       ",
"                      ....................                      ",
"                      ....................                      ",
"                     .....................                      ",
"                     ......................                     ",
"                     ......................                     ",
"                    ..........    ..........                    ",
"                    ........        ........                    ",
"                    ......           .......                    ",
"                     ...               ....                     ",
"                                                                ",
"                                                                ",
"                                                                ",
"                                                                ",
"                                                                ",
"                                                                ",
"                                                                ",
"                                                                ",
"                                                                ",
"                                                                ",
"                                                                ",
"                                                                ",
"                                                                ",
"                                                                ",
"                                                                ",
"                                                                ",
"                                                                ",
"                                                                ",
"                                                                "
};
