/* XPM */
static char *_3a3292468bd42778ea50714703c671fxXYprQfiK51ij2Ka[] = {
/* columns rows colors chars-per-pixel */
"2 48 2 1 ",
"  c #1D131E",
". c #3E2613",
/* pixels */
". ",
". ",
". ",
". ",
". ",
". ",
". ",
". ",
". ",
". ",
". ",
". ",
". ",
". ",
". ",
". ",
". ",
". ",
". ",
". ",
". ",
". ",
". ",
". ",
". ",
". ",
". ",
". ",
". ",
". ",
". ",
". ",
". ",
". ",
". ",
". ",
". ",
". ",
". ",
". ",
". ",
". ",
". ",
". ",
". ",
". ",
". ",
"  "
};
