/* XPM */
static char *_3a3292468bd42778ea50714703c671fxXYprQfiK51ij2Ka[] = {
/* columns rows colors chars-per-pixel */
"32 48 10 1 ",
"  c #1D131E",
". c #3E2613",
"X c #302732",
"o c #3A313A",
"O c #62351C",
"+ c #744B30",
"@ c #4B444C",
"# c #AE764B",
"$ c #867E7F",
"% c white",
/* pixels */
"  . . . . . . . . . . . . . . . ",
" +.+.+.+.+.+.+.+.+.+.+.+.+.+.+. ",
" OOOOOOOOOOOOOOOOOOOOOOOOOOOO+. ",
" #++OOOOOOOOOOOOOOOOOOOOOOO++#. ",
" ++OOOOOOOOOOOOOOOOOOOOOOO+###. ",
" +OOOOOOOOOOOOOOOOOOOOOOOOOO+#. ",
" +OOOOOOOOOOOOOOOOOOOOOOOOOO+#. ",
" .............................. ",
" ##+++OOOOOOOOOOOOOOOO++++++++. ",
" +OOOOOOOOOOOOOOOOOOOOOOOOOOO+. ",
" +OOOOOOOOOOOOOOOOOOOOOOOOOOO#. ",
" +OOOOOOOOOOOOOOOOOOOOOOOOOOO#. ",
" +OOOOOOOOOOOO.XXXXXXXXXXXXXXX. ",
" .++#O#OOOOOOXX%%%$$$$$$$$$$$$. ",
" .OOOOOOOOOOOOX$%$@@@@@@@@@@@@. ",
" .............X@$@@@@@@@@@@@@@. ",
" #+++++++++++XX@@@@@@@@@@@@@@@. ",
" +OOOOOOOOOOOOXXXXXXXXXXXXXXXX. ",
" ##+++O+OOOOOOOOOOOOOOOOOOOOO#. ",
" ++OOOOOOOOOOOOOOOOOOOOOOOOOO#. ",
" +OOOOOOOOOOOOOOOOOOOOOOOOOOO#. ",
" .#+OOOOOOOOOOOOOOOOOOOOOOOOO+. ",
" .OOOOOOOOOOOOOOOOOOOOOOOOOOO+. ",
" .............................. ",
" ##@XX@OOOOOOOOOOOOO++++++++++. ",
" +@X$$X@OOOOOOOOOOOOOOOOOOOO#+. ",
" OX@%%@XOOOOOOOOOOOOOOOOOOOOO#. ",
" +X%$$%XOOOOOOOOOOOOOOOOOOOOOO. ",
" +XX@@XXOOOOOO.XXXXXXXXXXXXXXX. ",
" .ooXXooOOOOOXX%%%$$$$$$$$$$$$. ",
" .OOooOOOOOOOOX$%$@@@@@@@@@@@@. ",
" .............X@$@@@@@@@@@@@@@. ",
" ##+++OOO++O+XX@@@@@@@@@@@@@@@. ",
" +OOOOOOOOOOOOXXXXXXXXXXXXXXXX. ",
" +OOOOOOOOOOOOOOOOOOOOOOO+++##. ",
" ++OOOOOOOOOOOOOOOOOOOOOOOOOO#. ",
" ##+++O+OOOOOOOOOOOOOOOOOOOOO#. ",
" +OOOOOOOOOOOOOOOOOOOOOOOOOOO+. ",
" .OOOOOOOOOOOOOOOOOOOOOOOOOO#+. ",
" .............................. ",
" ##+++OOO++O++++++++++++++++++. ",
" +OOOOOOOOOOOOOOOOOOOOOOOOOOO+. ",
" ##+++O+OOOOOOOOOOOOOOO+++++##. ",
" ++OOOOOOOOOOOOOOOOOOOOOO###OO. ",
" +OOOOOOOOOOOOOOOOOOOOOOOOOOOO. ",
" .++OOOOOOOOOOOOOOOOOOOOOOOOO+. ",
" .OOOOOOOOOOOOOOOOOOOOOOOOOOO+. ",
"                                "
};
