/* XPM */
static char *_62dde25426644ded2a8b67bcef0697dxBCiS255v1mUHIc5[] = {
/* columns rows colors chars-per-pixel */
"64 64 2 1 ",
"  c None",
". c #D5C2D2",
/* pixels */
"                                                                ",
"                                                                ",
"                                                                ",
"                                                                ",
"                                                                ",
"                                                                ",
"                                                                ",
"                                                                ",
"                                                                ",
"                                                                ",
"                                                                ",
"                                                                ",
"                                                                ",
"                                                                ",
"                                                                ",
"                                                                ",
"                                                                ",
"                                        .....                   ",
"                                      ........                  ",
"                                   ............                 ",
"                                 ...............                ",
"                              ...................               ",
"                            ......................              ",
"                         ...........................            ",
"                      ...............................           ",
"                    ..................................          ",
"                 ......................................         ",
"               .........................................        ",
"            .............................................       ",
"         .................................................      ",
"       ....................................................     ",
"     .......................................................    ",
"     .......................................................    ",
"       ....................................................     ",
"         .................................................      ",
"            .............................................       ",
"               .........................................        ",
"                 ......................................         ",
"                    ..................................          ",
"                      ...............................           ",
"                         ...........................            ",
"                            ......................              ",
"                              ...................               ",
"                                 ...............                ",
"                                   ............                 ",
"                                      ........                  ",
"                                        .....                   ",
"                                                                ",
"                                                                ",
"                                                                ",
"                                                                ",
"                                                                ",
"                                                                ",
"                                                                ",
"                                                                ",
"                                                                ",
"                                                                ",
"                                                                ",
"                                                                ",
"                                                                ",
"                                                                ",
"                                                                ",
"                                                                ",
"                                                                "
};
