/* XPM */
static char *_e74c2d1528a43f582ca993d689299b1Q6TiinwSqrpGQMyA[] = {
/* columns rows colors chars-per-pixel */
"32 48 10 1 ",
"  c #1D131E",
". c #3E2613",
"X c #302732",
"o c #3A313A",
"O c #62351C",
"+ c #744B30",
"@ c #4B444C",
"# c #AE764B",
"$ c #867E7F",
"% c white",
/* pixels */
" . . . . . . . . . . . . . . .  ",
" .+.+.+.+.+.+.+.+.+.+.+.+.+.+.+ ",
" .+OOOOOOOOOOOOOOOOOOOOOOOOOOOO ",
" .#++OOOOOOOOOOOOOOOOOOOOOOO++# ",
" .###+OOOOOOOOOOOOOOOOOOOOOOO++ ",
" .#+OOOOOOOOOOOOOOOOOOOOOOOOOO+ ",
" .#+OOOOOOOOOOOOOOOOOOOOOOOOOO+ ",
" .............................. ",
" .++++++++OOOOOOOOOOOOOOOO+++## ",
" .+OOOOOOOOOOOOOOOOOOOOOOOOOOO+ ",
" .#OOOOOOOOOOOOOOOOOOOOOOOOOOO+ ",
" .#OOOOOOOOOOOOOOOOOOOOOOOOOOO+ ",
" .XXXXXXXXXXXXXXX.OOOOOOOOOOOO+ ",
" .$$$$$$$$$$$$%%%XXOOOOOO#O#++. ",
" .@@@@@@@@@@@@$%$XOOOOOOOOOOOO. ",
" .@@@@@@@@@@@@@$@X............. ",
" .@@@@@@@@@@@@@@@XX+++++++++++# ",
" .XXXXXXXXXXXXXXXXOOOOOOOOOOOO+ ",
" .#OOOOOOOOOOOOOOOOOOOOO+O+++## ",
" .#OOOOOOOOOOOOOOOOOOOOOOOOOO++ ",
" .#OOOOOOOOOOOOOOOOOOOOOOOOOOO+ ",
" .+OOOOOOOOOOOOOOOOOOOOOOOOO+#. ",
" .+OOOOOOOOOOOOOOOOOOOOOOOOOOO. ",
" .............................. ",
" .++++++++++OOOOOOOOOOOOO@XX@## ",
" .+#OOOOOOOOOOOOOOOOOOOO@X$$X@+ ",
" .#OOOOOOOOOOOOOOOOOOOOOX@%%@XO ",
" .OOOOOOOOOOOOOOOOOOOOOOX%$$%X+ ",
" .XXXXXXXXXXXXXXX.OOOOOOXX@@XX+ ",
" .$$$$$$$$$$$$%%%XXOOOOOooXXoo. ",
" .@@@@@@@@@@@@$%$XOOOOOOOOooOO. ",
" .@@@@@@@@@@@@@$@X............. ",
" .@@@@@@@@@@@@@@@XX+O++OOO+++## ",
" .XXXXXXXXXXXXXXXXOOOOOOOOOOOO+ ",
" .##+++OOOOOOOOOOOOOOOOOOOOOOO+ ",
" .#OOOOOOOOOOOOOOOOOOOOOOOOOO++ ",
" .#OOOOOOOOOOOOOOOOOOOOO+O+++## ",
" .+OOOOOOOOOOOOOOOOOOOOOOOOOOO+ ",
" .+#OOOOOOOOOOOOOOOOOOOOOOOOOO. ",
" .............................. ",
" .++++++++++++++++++O++OOO+++## ",
" .+OOOOOOOOOOOOOOOOOOOOOOOOOOO+ ",
" .##+++++OOOOOOOOOOOOOOO+O+++## ",
" .OO###OOOOOOOOOOOOOOOOOOOOOO++ ",
" .OOOOOOOOOOOOOOOOOOOOOOOOOOOO+ ",
" .+OOOOOOOOOOOOOOOOOOOOOOOOO++. ",
" .+OOOOOOOOOOOOOOOOOOOOOOOOOOO. ",
"                                "
};
