/* XPM */
static char *e2dc5aa3eac54051a88e046860e06b55Ryia9piKTVcQ7GBq[] = {
/* columns rows colors chars-per-pixel */
"64 64 6 1 ",
"  c #0B1B33",
". c #132B4B",
"X c #1B3767",
"o c #23437F",
"O c #2B5397",
"+ c #3B6BCB",
/* pixels */
"+OOOOOOOOOOOOOOX+OOOOOOOOOOOOOOX+OOOOOOOOOOOOOOX+OOOOOOOOOOOOOOX",
"OoXXXXXXXXXXXXX OoXXXXXXXXXXXXX OoXXXXXXXXXXXXX OoXXXXXXXXXXXXX ",
"OXXXXXXXXXXXXXX OXXXXXXXXXXXXXX OXXXXXXXXXXXXXX OXXXXXXXXXXXXXX ",
"OXXXXXXXXXXXXXX OXXXXXXXXXXXXXX OXXXXXXXXXXXXXX OXXXXXXXXXXXXXX ",
"OXX         .XX OXX         .XX OXX         .XX OXX         .XX ",
"OXX XXXXXXXXOoX OXX XXXXXXXXOoX OXX XXXXXXXXOoX OXX XXXXXXXXOoX ",
"OXX X XXXX XOoX OXX X XXXX XOoX OXX X XXXX XOoX OXX X XXXX XOoX ",
"OXX XX.XXXX.OoX OXX XX.XXXX.OoX OXX XX.XXXX.OoX OXX XX.XXXX.OoX ",
"OXX XXXXXXXXOoX OXX XXXXXXXXOoX OXX XXXXXXXXOoX OXX XXXXXXXXOoX ",
"OXX XXXXXXXXOoX OXX XXXXXXXXOoX OXX XXXXXXXXOoX OXX XXXXXXXXOoX ",
"OXX X XXXX XOoX OXX X XXXX XOoX OXX X XXXX XOoX OXX X XXXX XOoX ",
"OXX XX.XXXX.OoX OXX XX.XXXX.OoX OXX XX.XXXX.OoX OXX XX.XXXX.OoX ",
"OXX.OOOOOOOO+oX OXX.OOOOOOOO+oX OXX.OOOOOOOO+oX OXX.OOOOOOOO+oX ",
"OXXXooooooooooX OXXXooooooooooX OXXXooooooooooX OXXXooooooooooX ",
"OXXXXXXXXXXXXX. OXXXXXXXXXXXXX. OXXXXXXXXXXXXX. OXXXXXXXXXXXXX. ",
"X               X               X               X               ",
"+OOOOOOOOOOOOOOX+OOOOOOOOOOOOOOX+OOOOOOOOOOOOOOX+OOOOOOOOOOOOOOX",
"OoXXXXXXXXXXXXX OoXXXXXXXXXXXXX OoXXXXXXXXXXXXX OoXXXXXXXXXXXXX ",
"OXXXXXXXXXXXXXX OXXXXXXXXXXXXXX OXXXXXXXXXXXXXX OXXXXXXXXXXXXXX ",
"OXXXXXXXXXXXXXX OXXXXXXXXXXXXXX OXXXXXXXXXXXXXX OXXXXXXXXXXXXXX ",
"OXX         .XX OXX         .XX OXX         .XX OXX         .XX ",
"OXX XXXXXXXXOoX OXX XXXXXXXXOoX OXX XXXXXXXXOoX OXX XXXXXXXXOoX ",
"OXX X XXXX XOoX OXX X XXXX XOoX OXX X XXXX XOoX OXX X XXXX XOoX ",
"OXX XX.XXXX.OoX OXX XX.XXXX.OoX OXX XX.XXXX.OoX OXX XX.XXXX.OoX ",
"OXX XXXXXXXXOoX OXX XXXXXXXXOoX OXX XXXXXXXXOoX OXX XXXXXXXXOoX ",
"OXX XXXXXXXXOoX OXX XXXXXXXXOoX OXX XXXXXXXXOoX OXX XXXXXXXXOoX ",
"OXX X XXXX XOoX OXX X XXXX XOoX OXX X XXXX XOoX OXX X XXXX XOoX ",
"OXX XX.XXXX.OoX OXX XX.XXXX.OoX OXX XX.XXXX.OoX OXX XX.XXXX.OoX ",
"OXX.OOOOOOOO+oX OXX.OOOOOOOO+oX OXX.OOOOOOOO+oX OXX.OOOOOOOO+oX ",
"OXXXooooooooooX OXXXooooooooooX OXXXooooooooooX OXXXooooooooooX ",
"OXXXXXXXXXXXXX. OXXXXXXXXXXXXX. OXXXXXXXXXXXXX. OXXXXXXXXXXXXX. ",
"X               X               X               X               ",
"+OOOOOOOOOOOOOOX+OOOOOOOOOOOOOOX+OOOOOOOOOOOOOOX+OOOOOOOOOOOOOOX",
"OoXXXXXXXXXXXXX OoXXXXXXXXXXXXX OoXXXXXXXXXXXXX OoXXXXXXXXXXXXX ",
"OXXXXXXXXXXXXXX OXXXXXXXXXXXXXX OXXXXXXXXXXXXXX OXXXXXXXXXXXXXX ",
"OXXXXXXXXXXXXXX OXXXXXXXXXXXXXX OXXXXXXXXXXXXXX OXXXXXXXXXXXXXX ",
"OXX         .XX OXX         .XX OXX         .XX OXX         .XX ",
"OXX XXXXXXXXOoX OXX XXXXXXXXOoX OXX XXXXXXXXOoX OXX XXXXXXXXOoX ",
"OXX X XXXX XOoX OXX X XXXX XOoX OXX X XXXX XOoX OXX X XXXX XOoX ",
"OXX XX.XXXX.OoX OXX XX.XXXX.OoX OXX XX.XXXX.OoX OXX XX.XXXX.OoX ",
"OXX XXXXXXXXOoX OXX XXXXXXXXOoX OXX XXXXXXXXOoX OXX XXXXXXXXOoX ",
"OXX XXXXXXXXOoX OXX XXXXXXXXOoX OXX XXXXXXXXOoX OXX XXXXXXXXOoX ",
"OXX X XXXX XOoX OXX X XXXX XOoX OXX X XXXX XOoX OXX X XXXX XOoX ",
"OXX XX.XXXX.OoX OXX XX.XXXX.OoX OXX XX.XXXX.OoX OXX XX.XXXX.OoX ",
"OXX.OOOOOOOO+oX OXX.OOOOOOOO+oX OXX.OOOOOOOO+oX OXX.OOOOOOOO+oX ",
"OXXXooooooooooX OXXXooooooooooX OXXXooooooooooX OXXXooooooooooX ",
"OXXXXXXXXXXXXX. OXXXXXXXXXXXXX. OXXXXXXXXXXXXX. OXXXXXXXXXXXXX. ",
"X               X               X               X               ",
"+OOOOOOOOOOOOOOX+OOOOOOOOOOOOOOX+OOOOOOOOOOOOOOX+OOOOOOOOOOOOOOX",
"OoXXXXXXXXXXXXX OoXXXXXXXXXXXXX OoXXXXXXXXXXXXX OoXXXXXXXXXXXXX ",
"OXXXXXXXXXXXXXX OXXXXXXXXXXXXXX OXXXXXXXXXXXXXX OXXXXXXXXXXXXXX ",
"OXXXXXXXXXXXXXX OXXXXXXXXXXXXXX OXXXXXXXXXXXXXX OXXXXXXXXXXXXXX ",
"OXX         .XX OXX         .XX OXX         .XX OXX         .XX ",
"OXX XXXXXXXXOoX OXX XXXXXXXXOoX OXX XXXXXXXXOoX OXX XXXXXXXXOoX ",
"OXX X XXXX XOoX OXX X XXXX XOoX OXX X XXXX XOoX OXX X XXXX XOoX ",
"OXX XX.XXXX.OoX OXX XX.XXXX.OoX OXX XX.XXXX.OoX OXX XX.XXXX.OoX ",
"OXX XXXXXXXXOoX OXX XXXXXXXXOoX OXX XXXXXXXXOoX OXX XXXXXXXXOoX ",
"OXX XXXXXXXXOoX OXX XXXXXXXXOoX OXX XXXXXXXXOoX OXX XXXXXXXXOoX ",
"OXX X XXXX XOoX OXX X XXXX XOoX OXX X XXXX XOoX OXX X XXXX XOoX ",
"OXX XX.XXXX.OoX OXX XX.XXXX.OoX OXX XX.XXXX.OoX OXX XX.XXXX.OoX ",
"OXX.OOOOOOOO+oX OXX.OOOOOOOO+oX OXX.OOOOOOOO+oX OXX.OOOOOOOO+oX ",
"OXXXooooooooooX OXXXooooooooooX OXXXooooooooooX OXXXooooooooooX ",
"OXXXXXXXXXXXXX. OXXXXXXXXXXXXX. OXXXXXXXXXXXXX. OXXXXXXXXXXXXX. ",
"X               X               X               X               "
};
