/* XPM */
static char *e66783b8ab8f4b84e78b714c2036f4d8ibLqvXjFFkA4ok8g[] = {
/* columns rows colors chars-per-pixel */
"64 64 12 1 ",
"  c #061021",
". c #0B192F",
"X c #0B1B33",
"o c #102040",
"O c #14274E",
"+ c #132B4B",
"@ c #19315C",
"# c #1B3767",
"$ c #233F7B",
"% c #23437F",
"& c #2B5397",
"* c #3B6BCB",
/* pixels */
"$@@@@@@@@@@@@@@o$@@@@@@@@@@@@@@o*&&&&&&&&&&&&&&#*&&&&&&&&&&&&&&#",
"@Oooooooooooooo @Oooooooooooooo &%#############X&%#############X",
"@oooooooooooooo @oooooooooooooo &##############X&##############X",
"@oooooooooooooo @oooooooooooooo &##############X&##############X",
"@oo         .oo @oo         .oo &##XXXXXXXXX+##X&##XXXXXXXXX+##X",
"@oo oooooooo@Oo @oo oooooooo@Oo &##X########&%#X&##X########&%#X",
"@oo o oooo o@Oo @oo o oooo o@Oo &##X#X####X#&%#X&##X#X####X#&%#X",
"@oo oo.oooo.@Oo @oo oo.oooo.@Oo &##X##+####+&%#X&##X##+####+&%#X",
"@oo oooooooo@Oo @oo oooooooo@Oo &##X########&%#X&##X########&%#X",
"@oo oooooooo@Oo @oo oooooooo@Oo &##X########&%#X&##X########&%#X",
"@oo o oooo o@Oo @oo o oooo o@Oo &##X#X####X#&%#X&##X#X####X#&%#X",
"@oo oo.oooo.@Oo @oo oo.oooo.@Oo &##X##+####+&%#X&##X##+####+&%#X",
"@oo.@@@@@@@@$Oo @oo.@@@@@@@@$Oo &##+&&&&&&&&*%#X&##+&&&&&&&&*%#X",
"@oooOOOOOOOOOOo @oooOOOOOOOOOOo &###%%%%%%%%%%#X&###%%%%%%%%%%#X",
"@ooooooooooooo. @ooooooooooooo. &#############+X&#############+X",
"o               o               #XXXXXXXXXXXXXXX#XXXXXXXXXXXXXXX",
"$@@@@@@@@@@@@@@o$@@@@@@@@@@@@@@o*&&&&&&&&&&&&&&#*&&&&&&&&&&&&&&#",
"@Oooooooooooooo @Oooooooooooooo &%#############X&%#############X",
"@oooooooooooooo @oooooooooooooo &##############X&##############X",
"@oooooooooooooo @oooooooooooooo &##############X&##############X",
"@oo         .oo @oo         .oo &##XXXXXXXXX+##X&##XXXXXXXXX+##X",
"@oo oooooooo@Oo @oo oooooooo@Oo &##X########&%#X&##X########&%#X",
"@oo o oooo o@Oo @oo o oooo o@Oo &##X#X####X#&%#X&##X#X####X#&%#X",
"@oo oo.oooo.@Oo @oo oo.oooo.@Oo &##X##+####+&%#X&##X##+####+&%#X",
"@oo oooooooo@Oo @oo oooooooo@Oo &##X########&%#X&##X########&%#X",
"@oo oooooooo@Oo @oo oooooooo@Oo &##X########&%#X&##X########&%#X",
"@oo o oooo o@Oo @oo o oooo o@Oo &##X#X####X#&%#X&##X#X####X#&%#X",
"@oo oo.oooo.@Oo @oo oo.oooo.@Oo &##X##+####+&%#X&##X##+####+&%#X",
"@oo.@@@@@@@@$Oo @oo.@@@@@@@@$Oo &##+&&&&&&&&*%#X&##+&&&&&&&&*%#X",
"@oooOOOOOOOOOOo @oooOOOOOOOOOOo &###%%%%%%%%%%#X&###%%%%%%%%%%#X",
"@ooooooooooooo. @ooooooooooooo. &#############+X&#############+X",
"#XXXXXXXXXXXXXXX#XXXXXXXXXXXXXXX#XXXXXXXXXXXXXXX#XXXXXXXXXXXXXXX",
"*&&&&&&&&&&&&&&#*&&&&&&&&&&&&&&#$@@@@@@@@@@@@@@o$@@@@@@@@@@@@@@o",
"&%#############X&%#############X@Oooooooooooooo @Oooooooooooooo ",
"&##############X&##############X@oooooooooooooo @oooooooooooooo ",
"&##############X&##############X@oooooooooooooo @oooooooooooooo ",
"&##XXXXXXXXX+##X&##XXXXXXXXX+##X@oo         .oo @oo         .oo ",
"&##X########&%#X&##X########&%#X@oo oooooooo@Oo @oo oooooooo@Oo ",
"&##X#X####X#&%#X&##X#X####X#&%#X@oo o oooo o@Oo @oo o oooo o@Oo ",
"&##X##+####+&%#X&##X##+####+&%#X@oo oo.oooo.@Oo @oo oo.oooo.@Oo ",
"&##X########&%#X&##X########&%#X@oo oooooooo@Oo @oo oooooooo@Oo ",
"&##X########&%#X&##X########&%#X@oo oooooooo@Oo @oo oooooooo@Oo ",
"&##X#X####X#&%#X&##X#X####X#&%#X@oo o oooo o@Oo @oo o oooo o@Oo ",
"&##X##+####+&%#X&##X##+####+&%#X@oo oo.oooo.@Oo @oo oo.oooo.@Oo ",
"&##+&&&&&&&&*%#X&##+&&&&&&&&*%#X@oo.@@@@@@@@$Oo @oo.@@@@@@@@$Oo ",
"&###%%%%%%%%%%#X&###%%%%%%%%%%#X@oooOOOOOOOOOOo @oooOOOOOOOOOOo ",
"&#############+X&#############+X@ooooooooooooo. @ooooooooooooo. ",
"#XXXXXXXXXXXXXXX#XXXXXXXXXXXXXXXo               o               ",
"*&&&&&&&&&&&&&&#*&&&&&&&&&&&&&&#$@@@@@@@@@@@@@@o$@@@@@@@@@@@@@@o",
"&%#############X&%#############X@Oooooooooooooo @Oooooooooooooo ",
"&##############X&##############X@oooooooooooooo @oooooooooooooo ",
"&##############X&##############X@oooooooooooooo @oooooooooooooo ",
"&##XXXXXXXXX+##X&##XXXXXXXXX+##X@oo         .oo @oo         .oo ",
"&##X########&%#X&##X########&%#X@oo oooooooo@Oo @oo oooooooo@Oo ",
"&##X#X####X#&%#X&##X#X####X#&%#X@oo o oooo o@Oo @oo o oooo o@Oo ",
"&##X##+####+&%#X&##X##+####+&%#X@oo oo.oooo.@Oo @oo oo.oooo.@Oo ",
"&##X########&%#X&##X########&%#X@oo oooooooo@Oo @oo oooooooo@Oo ",
"&##X########&%#X&##X########&%#X@oo oooooooo@Oo @oo oooooooo@Oo ",
"&##X#X####X#&%#X&##X#X####X#&%#X@oo o oooo o@Oo @oo o oooo o@Oo ",
"&##X##+####+&%#X&##X##+####+&%#X@oo oo.oooo.@Oo @oo oo.oooo.@Oo ",
"&##+&&&&&&&&*%#X&##+&&&&&&&&*%#X@oo.@@@@@@@@$Oo @oo.@@@@@@@@$Oo ",
"&###%%%%%%%%%%#X&###%%%%%%%%%%#X@oooOOOOOOOOOOo @oooOOOOOOOOOOo ",
"&#############+X&#############+X@ooooooooooooo. @ooooooooooooo. ",
"#XXXXXXXXXXXXXXX#XXXXXXXXXXXXXXXo               o               "
};
