/* XPM */
static char *_3208fed581b45e591889b1e462a8901dOJwiDYwXEUYKr0W[] = {
/* columns rows colors chars-per-pixel */
"32 32 8 1 ",
"  c black",
". c None",
"X c #71693F",
"o c #FFE900",
"O c #DFBD00",
"+ c #FFEA00",
"@ c #FFFF3A",
"# c white",
/* pixels */
"                                ",
"              XXX               ",
"            XXoooXX             ",
"          XXoooooooX            ",
"         XOOOOOoo+ooX           ",
"         XOOOOOOoo+ooX          ",
"        XOOOXOOOOoo+oX          ",
"        XOOXOOOOOOoo+oX         ",
"        XOOXOOOOOO+oO@X         ",
"        XOOXOOOOOOOO@@@X        ",
"        XOOXOOOOOOO@@@@X        ",
"         XOOXOOOOO@@@@@X        ",
"         XOOOOOOO@@@@@OX        ",
"          XOOOOO@@@@@OOX        ",
"          XOOOOXX@@@OOX         ",
"           XOO@@@@@OOOX         ",
"            X@@@@@OOXX          ",
"             XX@@OXX            ",
"               XXX              ",
"                                ",
"                                ",
"                                ",
"                                ",
"                                ",
"                                ",
"                                ",
"              ....              ",
"           ..........           ",
"           ..........           ",
"           ..........           ",
"              ....              ",
"                                "
};
