/* XPM */
static char *_373660a0a264e25930849bc5202593a0e4SLR6k56DhFwV2[] = {
/* columns rows colors chars-per-pixel */
"32 32 9 1 ",
"  c black",
". c None",
"X c #71693F",
"o c #F5DB38",
"O c #CAAC00",
"+ c #FFFF3A",
"@ c #DFBD00",
"# c #DFBE00",
"$ c white",
/* pixels */
"                                ",
"                                ",
"                                ",
"              XXXX              ",
"             XooooX             ",
"             XooooOX            ",
"            X+++++OX            ",
"            X+++++XX            ",
"            X+++++XX            ",
"            X+++++XX            ",
"            X++++@XX            ",
"            X++++@oX            ",
"            X++++@+X            ",
"            X@+++@+X            ",
"            X@@@@@+X            ",
"            Xoooo@@X            ",
"            Xoooo@@X            ",
"            Xoooo@@X            ",
"            Xoooo@X             ",
"             XX@#@X             ",
"               XXX              ",
"                                ",
"                                ",
"                                ",
"                                ",
"                                ",
"             ......             ",
"           ..........           ",
"          ............          ",
"           ..........           ",
"             ......             ",
"                                "
};
